<mxfile host="app.diagrams.net" agent="Mozilla/5.0 (Windows NT 10.0; Win64; x64) AppleWebKit/537.36 (KHTML, like Gecko) Chrome/124.0.0.0 Safari/537.36" version="24.8.4">
  <diagram name="第 1 页" id="L3WZC5eS8paEccrdpI3V">
    <mxGraphModel dx="1908" dy="1132" grid="1" gridSize="10" guides="1" tooltips="1" connect="1" arrows="1" fold="1" page="1" pageScale="1" pageWidth="827" pageHeight="1169" math="0" shadow="0">
      <root>
        <mxCell id="0" />
        <mxCell id="1" parent="0" />
        <mxCell id="QxRoNxPgnoKcdu5dZagj-540" value="研究主题" style="whiteSpace=wrap;strokeWidth=2;" vertex="1" parent="1">
          <mxGeometry x="6416" y="20" width="124" height="49" as="geometry" />
        </mxCell>
        <mxCell id="QxRoNxPgnoKcdu5dZagj-541" value="文献回顾与理论基础" style="rounded=1;arcSize=40;strokeWidth=2" vertex="1" parent="1">
          <mxGeometry x="791" y="119" width="174" height="49" as="geometry" />
        </mxCell>
        <mxCell id="QxRoNxPgnoKcdu5dZagj-542" value="创业训练理论" style="rhombus;strokeWidth=2;whiteSpace=wrap;" vertex="1" parent="1">
          <mxGeometry x="278" y="217" width="145" height="145" as="geometry" />
        </mxCell>
        <mxCell id="QxRoNxPgnoKcdu5dZagj-543" value="盖特纳创业过程模型" style="whiteSpace=wrap;strokeWidth=2;" vertex="1" parent="1">
          <mxGeometry x="20" y="429" width="204" height="49" as="geometry" />
        </mxCell>
        <mxCell id="QxRoNxPgnoKcdu5dZagj-544" value="创业资源拼凑理论" style="whiteSpace=wrap;strokeWidth=2;" vertex="1" parent="1">
          <mxGeometry x="274" y="429" width="188" height="49" as="geometry" />
        </mxCell>
        <mxCell id="QxRoNxPgnoKcdu5dZagj-545" value="奥托的U型理论" style="whiteSpace=wrap;strokeWidth=2;" vertex="1" parent="1">
          <mxGeometry x="512" y="429" width="166" height="49" as="geometry" />
        </mxCell>
        <mxCell id="QxRoNxPgnoKcdu5dZagj-546" value="关键概念定义" style="rounded=1;arcSize=40;strokeWidth=2" vertex="1" parent="1">
          <mxGeometry x="1157" y="265" width="126" height="49" as="geometry" />
        </mxCell>
        <mxCell id="QxRoNxPgnoKcdu5dZagj-547" value="创业训练: 定义与类型" style="whiteSpace=wrap;strokeWidth=2;" vertex="1" parent="1">
          <mxGeometry x="728" y="429" width="215" height="49" as="geometry" />
        </mxCell>
        <mxCell id="QxRoNxPgnoKcdu5dZagj-548" value="创业成功: 定义与测量指标" style="whiteSpace=wrap;strokeWidth=2;" vertex="1" parent="1">
          <mxGeometry x="993" y="429" width="247" height="49" as="geometry" />
        </mxCell>
        <mxCell id="QxRoNxPgnoKcdu5dZagj-549" value="创业训练导师素养: 定义与评估标准" style="whiteSpace=wrap;strokeWidth=2;" vertex="1" parent="1">
          <mxGeometry x="1290" y="420" width="194" height="66" as="geometry" />
        </mxCell>
        <mxCell id="QxRoNxPgnoKcdu5dZagj-550" value="创业政策发展: 定义与影响因素" style="whiteSpace=wrap;strokeWidth=2;" vertex="1" parent="1">
          <mxGeometry x="1534" y="420" width="172" height="66" as="geometry" />
        </mxCell>
        <mxCell id="QxRoNxPgnoKcdu5dZagj-551" value="研究设计" style="rounded=1;arcSize=40;strokeWidth=2" vertex="1" parent="1">
          <mxGeometry x="2516" y="119" width="94" height="49" as="geometry" />
        </mxCell>
        <mxCell id="QxRoNxPgnoKcdu5dZagj-552" value="研究目标设定" style="whiteSpace=wrap;strokeWidth=2;" vertex="1" parent="1">
          <mxGeometry x="1673" y="265" width="156" height="49" as="geometry" />
        </mxCell>
        <mxCell id="QxRoNxPgnoKcdu5dZagj-553" value="研究假设" style="rounded=1;arcSize=40;strokeWidth=2" vertex="1" parent="1">
          <mxGeometry x="2096" y="265" width="94" height="49" as="geometry" />
        </mxCell>
        <mxCell id="QxRoNxPgnoKcdu5dZagj-554" value="H1: 创业训练与创业成功正相关" style="whiteSpace=wrap;strokeWidth=2;" vertex="1" parent="1">
          <mxGeometry x="1756" y="420" width="252" height="66" as="geometry" />
        </mxCell>
        <mxCell id="QxRoNxPgnoKcdu5dZagj-555" value="H2: 创业政策发展中介作用" style="whiteSpace=wrap;strokeWidth=2;" vertex="1" parent="1">
          <mxGeometry x="2058" y="429" width="250" height="49" as="geometry" />
        </mxCell>
        <mxCell id="QxRoNxPgnoKcdu5dZagj-556" value="其他假设" style="whiteSpace=wrap;strokeWidth=2;" vertex="1" parent="1">
          <mxGeometry x="2358" y="429" width="124" height="49" as="geometry" />
        </mxCell>
        <mxCell id="QxRoNxPgnoKcdu5dZagj-557" value="研究方法" style="rounded=1;arcSize=40;strokeWidth=2" vertex="1" parent="1">
          <mxGeometry x="2722" y="265" width="94" height="49" as="geometry" />
        </mxCell>
        <mxCell id="QxRoNxPgnoKcdu5dZagj-558" value="定量研究方法" style="rounded=1;arcSize=40;strokeWidth=2" vertex="1" parent="1">
          <mxGeometry x="2532" y="429" width="126" height="49" as="geometry" />
        </mxCell>
        <mxCell id="QxRoNxPgnoKcdu5dZagj-559" value="问卷设计" style="whiteSpace=wrap;strokeWidth=2;" vertex="1" parent="1">
          <mxGeometry x="2446" y="634" width="124" height="49" as="geometry" />
        </mxCell>
        <mxCell id="QxRoNxPgnoKcdu5dZagj-560" value="统计分析" style="whiteSpace=wrap;strokeWidth=2;" vertex="1" parent="1">
          <mxGeometry x="2620" y="634" width="124" height="49" as="geometry" />
        </mxCell>
        <mxCell id="QxRoNxPgnoKcdu5dZagj-561" value="定性研究方法" style="rounded=1;arcSize=40;strokeWidth=2" vertex="1" parent="1">
          <mxGeometry x="2880" y="429" width="126" height="49" as="geometry" />
        </mxCell>
        <mxCell id="QxRoNxPgnoKcdu5dZagj-562" value="深度访谈" style="whiteSpace=wrap;strokeWidth=2;" vertex="1" parent="1">
          <mxGeometry x="2794" y="634" width="124" height="49" as="geometry" />
        </mxCell>
        <mxCell id="QxRoNxPgnoKcdu5dZagj-563" value="案例分析" style="whiteSpace=wrap;strokeWidth=2;" vertex="1" parent="1">
          <mxGeometry x="2972" y="634" width="124" height="49" as="geometry" />
        </mxCell>
        <mxCell id="QxRoNxPgnoKcdu5dZagj-564" value="技术路线图" style="rounded=1;arcSize=40;strokeWidth=2" vertex="1" parent="1">
          <mxGeometry x="3178" y="265" width="110" height="49" as="geometry" />
        </mxCell>
        <mxCell id="QxRoNxPgnoKcdu5dZagj-565" value="研究步骤流程" style="whiteSpace=wrap;strokeWidth=2;" vertex="1" parent="1">
          <mxGeometry x="3056" y="429" width="156" height="49" as="geometry" />
        </mxCell>
        <mxCell id="QxRoNxPgnoKcdu5dZagj-566" value="方法论框架" style="whiteSpace=wrap;strokeWidth=2;" vertex="1" parent="1">
          <mxGeometry x="3262" y="429" width="140" height="49" as="geometry" />
        </mxCell>
        <mxCell id="QxRoNxPgnoKcdu5dZagj-567" value="实证研究" style="rounded=1;arcSize=40;strokeWidth=2" vertex="1" parent="1">
          <mxGeometry x="6431" y="119" width="94" height="49" as="geometry" />
        </mxCell>
        <mxCell id="QxRoNxPgnoKcdu5dZagj-568" value="问卷设计与预调研" style="whiteSpace=wrap;strokeWidth=2;" vertex="1" parent="1">
          <mxGeometry x="3785" y="265" width="188" height="49" as="geometry" />
        </mxCell>
        <mxCell id="QxRoNxPgnoKcdu5dZagj-569" value="问卷设计原则与内容" style="whiteSpace=wrap;strokeWidth=2;" vertex="1" parent="1">
          <mxGeometry x="3452" y="429" width="204" height="49" as="geometry" />
        </mxCell>
        <mxCell id="QxRoNxPgnoKcdu5dZagj-570" value="问卷设计的理论依据" style="whiteSpace=wrap;strokeWidth=2;" vertex="1" parent="1">
          <mxGeometry x="3146" y="634" width="204" height="49" as="geometry" />
        </mxCell>
        <mxCell id="QxRoNxPgnoKcdu5dZagj-571" value="问卷结构" style="whiteSpace=wrap;strokeWidth=2;" vertex="1" parent="1">
          <mxGeometry x="3492" y="634" width="124" height="49" as="geometry" />
        </mxCell>
        <mxCell id="QxRoNxPgnoKcdu5dZagj-572" value="问题设计" style="whiteSpace=wrap;strokeWidth=2;" vertex="1" parent="1">
          <mxGeometry x="3666" y="634" width="124" height="49" as="geometry" />
        </mxCell>
        <mxCell id="QxRoNxPgnoKcdu5dZagj-573" value="预调研过程与探索性因子分析结果" style="whiteSpace=wrap;strokeWidth=2;" vertex="1" parent="1">
          <mxGeometry x="4101" y="420" width="253" height="66" as="geometry" />
        </mxCell>
        <mxCell id="QxRoNxPgnoKcdu5dZagj-574" value="预调研的目的与方法" style="whiteSpace=wrap;strokeWidth=2;" vertex="1" parent="1">
          <mxGeometry x="3840" y="634" width="204" height="49" as="geometry" />
        </mxCell>
        <mxCell id="QxRoNxPgnoKcdu5dZagj-575" value="探索性因子分析的过程" style="whiteSpace=wrap;strokeWidth=2;" vertex="1" parent="1">
          <mxGeometry x="4094" y="634" width="220" height="49" as="geometry" />
        </mxCell>
        <mxCell id="QxRoNxPgnoKcdu5dZagj-576" value="探索性因子分析的结果与讨论" style="whiteSpace=wrap;strokeWidth=2;" vertex="1" parent="1">
          <mxGeometry x="4364" y="625" width="252" height="66" as="geometry" />
        </mxCell>
        <mxCell id="QxRoNxPgnoKcdu5dZagj-577" value="正式调研与数据分析" style="whiteSpace=wrap;strokeWidth=2;" vertex="1" parent="1">
          <mxGeometry x="5225" y="265" width="204" height="49" as="geometry" />
        </mxCell>
        <mxCell id="QxRoNxPgnoKcdu5dZagj-578" value="正式调研方法与过程" style="whiteSpace=wrap;strokeWidth=2;" vertex="1" parent="1">
          <mxGeometry x="4872" y="429" width="204" height="49" as="geometry" />
        </mxCell>
        <mxCell id="QxRoNxPgnoKcdu5dZagj-579" value="调研对象的选择" style="whiteSpace=wrap;strokeWidth=2;" vertex="1" parent="1">
          <mxGeometry x="4666" y="634" width="172" height="49" as="geometry" />
        </mxCell>
        <mxCell id="QxRoNxPgnoKcdu5dZagj-580" value="数据收集方法" style="whiteSpace=wrap;strokeWidth=2;" vertex="1" parent="1">
          <mxGeometry x="4888" y="634" width="156" height="49" as="geometry" />
        </mxCell>
        <mxCell id="QxRoNxPgnoKcdu5dZagj-581" value="调研过程描述" style="whiteSpace=wrap;strokeWidth=2;" vertex="1" parent="1">
          <mxGeometry x="5094" y="634" width="156" height="49" as="geometry" />
        </mxCell>
        <mxCell id="QxRoNxPgnoKcdu5dZagj-582" value="验证性因子分析结果" style="whiteSpace=wrap;strokeWidth=2;" vertex="1" parent="1">
          <mxGeometry x="5578" y="429" width="205" height="49" as="geometry" />
        </mxCell>
        <mxCell id="QxRoNxPgnoKcdu5dZagj-583" value="验证性因子分析的模型构建" style="whiteSpace=wrap;strokeWidth=2;" vertex="1" parent="1">
          <mxGeometry x="5300" y="634" width="253" height="49" as="geometry" />
        </mxCell>
        <mxCell id="QxRoNxPgnoKcdu5dZagj-584" value="分析结果的描述" style="whiteSpace=wrap;strokeWidth=2;" vertex="1" parent="1">
          <mxGeometry x="5602" y="634" width="173" height="49" as="geometry" />
        </mxCell>
        <mxCell id="QxRoNxPgnoKcdu5dZagj-585" value="分析结果的讨论" style="whiteSpace=wrap;strokeWidth=2;" vertex="1" parent="1">
          <mxGeometry x="5825" y="634" width="173" height="49" as="geometry" />
        </mxCell>
        <mxCell id="QxRoNxPgnoKcdu5dZagj-586" value="变量描述性及相关性、差异性分析" style="whiteSpace=wrap;strokeWidth=2;" vertex="1" parent="1">
          <mxGeometry x="6428" y="256" width="252" height="66" as="geometry" />
        </mxCell>
        <mxCell id="QxRoNxPgnoKcdu5dZagj-587" value="变量描述统计分析" style="whiteSpace=wrap;strokeWidth=2;" vertex="1" parent="1">
          <mxGeometry x="6150" y="429" width="188" height="49" as="geometry" />
        </mxCell>
        <mxCell id="QxRoNxPgnoKcdu5dZagj-588" value="变量的描述统计" style="whiteSpace=wrap;strokeWidth=2;" vertex="1" parent="1">
          <mxGeometry x="6047" y="634" width="172" height="49" as="geometry" />
        </mxCell>
        <mxCell id="QxRoNxPgnoKcdu5dZagj-589" value="统计结果的解读" style="whiteSpace=wrap;strokeWidth=2;" vertex="1" parent="1">
          <mxGeometry x="6269" y="634" width="172" height="49" as="geometry" />
        </mxCell>
        <mxCell id="QxRoNxPgnoKcdu5dZagj-590" value="相关性与差异性分析" style="whiteSpace=wrap;strokeWidth=2;" vertex="1" parent="1">
          <mxGeometry x="6721" y="429" width="204" height="49" as="geometry" />
        </mxCell>
        <mxCell id="QxRoNxPgnoKcdu5dZagj-591" value="相关性分析的结果" style="whiteSpace=wrap;strokeWidth=2;" vertex="1" parent="1">
          <mxGeometry x="6491" y="634" width="188" height="49" as="geometry" />
        </mxCell>
        <mxCell id="QxRoNxPgnoKcdu5dZagj-592" value="差异性分析的结果" style="whiteSpace=wrap;strokeWidth=2;" vertex="1" parent="1">
          <mxGeometry x="6729" y="634" width="189" height="49" as="geometry" />
        </mxCell>
        <mxCell id="QxRoNxPgnoKcdu5dZagj-593" value="结果的讨论" style="whiteSpace=wrap;strokeWidth=2;" vertex="1" parent="1">
          <mxGeometry x="6968" y="634" width="140" height="49" as="geometry" />
        </mxCell>
        <mxCell id="QxRoNxPgnoKcdu5dZagj-594" value="模型分析与假设检验" style="whiteSpace=wrap;strokeWidth=2;" vertex="1" parent="1">
          <mxGeometry x="7692" y="265" width="205" height="49" as="geometry" />
        </mxCell>
        <mxCell id="QxRoNxPgnoKcdu5dZagj-595" value="研究假设检验结果" style="whiteSpace=wrap;strokeWidth=2;" vertex="1" parent="1">
          <mxGeometry x="7376" y="429" width="188" height="49" as="geometry" />
        </mxCell>
        <mxCell id="QxRoNxPgnoKcdu5dZagj-596" value="假设检验的方法" style="whiteSpace=wrap;strokeWidth=2;" vertex="1" parent="1">
          <mxGeometry x="7158" y="634" width="172" height="49" as="geometry" />
        </mxCell>
        <mxCell id="QxRoNxPgnoKcdu5dZagj-597" value="假设检验的结果" style="whiteSpace=wrap;strokeWidth=2;" vertex="1" parent="1">
          <mxGeometry x="7380" y="634" width="172" height="49" as="geometry" />
        </mxCell>
        <mxCell id="QxRoNxPgnoKcdu5dZagj-598" value="结果的解释" style="whiteSpace=wrap;strokeWidth=2;" vertex="1" parent="1">
          <mxGeometry x="7602" y="634" width="140" height="49" as="geometry" />
        </mxCell>
        <mxCell id="QxRoNxPgnoKcdu5dZagj-599" value="路径分析与模型拟合度评价" style="whiteSpace=wrap;strokeWidth=2;" vertex="1" parent="1">
          <mxGeometry x="8026" y="429" width="252" height="49" as="geometry" />
        </mxCell>
        <mxCell id="QxRoNxPgnoKcdu5dZagj-600" value="路径分析的过程" style="whiteSpace=wrap;strokeWidth=2;" vertex="1" parent="1">
          <mxGeometry x="7792" y="634" width="172" height="49" as="geometry" />
        </mxCell>
        <mxCell id="QxRoNxPgnoKcdu5dZagj-601" value="模型拟合度的评估方法" style="whiteSpace=wrap;strokeWidth=2;" vertex="1" parent="1">
          <mxGeometry x="8014" y="634" width="220" height="49" as="geometry" />
        </mxCell>
        <mxCell id="QxRoNxPgnoKcdu5dZagj-602" value="模型拟合度的结果与讨论" style="whiteSpace=wrap;strokeWidth=2;" vertex="1" parent="1">
          <mxGeometry x="8284" y="634" width="236" height="49" as="geometry" />
        </mxCell>
        <mxCell id="QxRoNxPgnoKcdu5dZagj-603" value="内生性检验" style="whiteSpace=wrap;strokeWidth=2;" vertex="1" parent="1">
          <mxGeometry x="8986" y="265" width="141" height="49" as="geometry" />
        </mxCell>
        <mxCell id="QxRoNxPgnoKcdu5dZagj-604" value="内生性问题处理方法" style="whiteSpace=wrap;strokeWidth=2;" vertex="1" parent="1">
          <mxGeometry x="8689" y="429" width="204" height="49" as="geometry" />
        </mxCell>
        <mxCell id="QxRoNxPgnoKcdu5dZagj-605" value="内生性问题的定义" style="whiteSpace=wrap;strokeWidth=2;" vertex="1" parent="1">
          <mxGeometry x="8570" y="634" width="188" height="49" as="geometry" />
        </mxCell>
        <mxCell id="QxRoNxPgnoKcdu5dZagj-606" value="处理内生性问题的方法" style="whiteSpace=wrap;strokeWidth=2;" vertex="1" parent="1">
          <mxGeometry x="8808" y="634" width="221" height="49" as="geometry" />
        </mxCell>
        <mxCell id="QxRoNxPgnoKcdu5dZagj-607" value="内生性检验结果" style="whiteSpace=wrap;strokeWidth=2;" vertex="1" parent="1">
          <mxGeometry x="9252" y="429" width="172" height="49" as="geometry" />
        </mxCell>
        <mxCell id="QxRoNxPgnoKcdu5dZagj-608" value="检验的过程" style="whiteSpace=wrap;strokeWidth=2;" vertex="1" parent="1">
          <mxGeometry x="9078" y="634" width="140" height="49" as="geometry" />
        </mxCell>
        <mxCell id="QxRoNxPgnoKcdu5dZagj-609" value="检验的结果" style="whiteSpace=wrap;strokeWidth=2;" vertex="1" parent="1">
          <mxGeometry x="9268" y="634" width="140" height="49" as="geometry" />
        </mxCell>
        <mxCell id="QxRoNxPgnoKcdu5dZagj-610" value="结果的讨论" style="whiteSpace=wrap;strokeWidth=2;" vertex="1" parent="1">
          <mxGeometry x="10082" y="634" width="140" height="49" as="geometry" />
        </mxCell>
        <mxCell id="QxRoNxPgnoKcdu5dZagj-611" value="案例分析" style="rounded=1;arcSize=40;strokeWidth=2" vertex="1" parent="1">
          <mxGeometry x="10364" y="119" width="94" height="49" as="geometry" />
        </mxCell>
        <mxCell id="QxRoNxPgnoKcdu5dZagj-612" value="案例选择标准" style="whiteSpace=wrap;strokeWidth=2;" vertex="1" parent="1">
          <mxGeometry x="9625" y="265" width="156" height="49" as="geometry" />
        </mxCell>
        <mxCell id="QxRoNxPgnoKcdu5dZagj-613" value="研究对象的选择标准" style="whiteSpace=wrap;strokeWidth=2;" vertex="1" parent="1">
          <mxGeometry x="9474" y="429" width="204" height="49" as="geometry" />
        </mxCell>
        <mxCell id="QxRoNxPgnoKcdu5dZagj-614" value="确定研究对象的原则" style="whiteSpace=wrap;strokeWidth=2;" vertex="1" parent="1">
          <mxGeometry x="9728" y="429" width="205" height="49" as="geometry" />
        </mxCell>
        <mxCell id="QxRoNxPgnoKcdu5dZagj-615" value="具体案例分析" style="whiteSpace=wrap;strokeWidth=2;" vertex="1" parent="1">
          <mxGeometry x="10345" y="265" width="156" height="49" as="geometry" />
        </mxCell>
        <mxCell id="QxRoNxPgnoKcdu5dZagj-616" value="案例A: 创业训练与创业成功的关系分析" style="whiteSpace=wrap;strokeWidth=2;" vertex="1" parent="1">
          <mxGeometry x="9983" y="412" width="252" height="84" as="geometry" />
        </mxCell>
        <mxCell id="QxRoNxPgnoKcdu5dZagj-617" value="案例B: 创业政策发展对创业训练与创业成功之间的影响分析" style="whiteSpace=wrap;strokeWidth=2;" vertex="1" parent="1">
          <mxGeometry x="10285" y="412" width="252" height="84" as="geometry" />
        </mxCell>
        <mxCell id="QxRoNxPgnoKcdu5dZagj-618" value="案例C: 其他相关影响因素分析（如有）" style="whiteSpace=wrap;strokeWidth=2;" vertex="1" parent="1">
          <mxGeometry x="10587" y="412" width="252" height="84" as="geometry" />
        </mxCell>
        <mxCell id="QxRoNxPgnoKcdu5dZagj-619" value="分析结果与启示" style="whiteSpace=wrap;strokeWidth=2;" vertex="1" parent="1">
          <mxGeometry x="11170" y="265" width="173" height="49" as="geometry" />
        </mxCell>
        <mxCell id="QxRoNxPgnoKcdu5dZagj-620" value="案例分析的结果" style="whiteSpace=wrap;strokeWidth=2;" vertex="1" parent="1">
          <mxGeometry x="10889" y="429" width="172" height="49" as="geometry" />
        </mxCell>
        <mxCell id="QxRoNxPgnoKcdu5dZagj-621" value="案例分析总结" style="whiteSpace=wrap;strokeWidth=2;" vertex="1" parent="1">
          <mxGeometry x="10272" y="634" width="156" height="49" as="geometry" />
        </mxCell>
        <mxCell id="QxRoNxPgnoKcdu5dZagj-622" value="从案例中提取的共同特征" style="whiteSpace=wrap;strokeWidth=2;" vertex="1" parent="1">
          <mxGeometry x="10980" y="634" width="236" height="49" as="geometry" />
        </mxCell>
        <mxCell id="QxRoNxPgnoKcdu5dZagj-623" value="案例分析的启示" style="whiteSpace=wrap;strokeWidth=2;" vertex="1" parent="1">
          <mxGeometry x="11433" y="429" width="172" height="49" as="geometry" />
        </mxCell>
        <mxCell id="QxRoNxPgnoKcdu5dZagj-624" value="案例对理论模型的支持" style="whiteSpace=wrap;strokeWidth=2;" vertex="1" parent="1">
          <mxGeometry x="11266" y="634" width="220" height="49" as="geometry" />
        </mxCell>
        <mxCell id="QxRoNxPgnoKcdu5dZagj-625" value="案例分析对实践的指导意义" style="whiteSpace=wrap;strokeWidth=2;" vertex="1" parent="1">
          <mxGeometry x="11536" y="634" width="252" height="49" as="geometry" />
        </mxCell>
        <mxCell id="QxRoNxPgnoKcdu5dZagj-626" value="研究结论与建议" style="rounded=1;arcSize=40;strokeWidth=2" vertex="1" parent="1">
          <mxGeometry x="11812" y="119" width="142" height="49" as="geometry" />
        </mxCell>
        <mxCell id="QxRoNxPgnoKcdu5dZagj-627" value="主要研究结论" style="whiteSpace=wrap;strokeWidth=2;" vertex="1" parent="1">
          <mxGeometry x="11393" y="265" width="156" height="49" as="geometry" />
        </mxCell>
        <mxCell id="QxRoNxPgnoKcdu5dZagj-628" value="管理启示" style="whiteSpace=wrap;strokeWidth=2;" vertex="1" parent="1">
          <mxGeometry x="11599" y="265" width="124" height="49" as="geometry" />
        </mxCell>
        <mxCell id="QxRoNxPgnoKcdu5dZagj-629" value="对高校创业教育的建议" style="whiteSpace=wrap;strokeWidth=2;" vertex="1" parent="1">
          <mxGeometry x="11773" y="265" width="220" height="49" as="geometry" />
        </mxCell>
        <mxCell id="QxRoNxPgnoKcdu5dZagj-630" value="对政策制定者的建议" style="whiteSpace=wrap;strokeWidth=2;" vertex="1" parent="1">
          <mxGeometry x="12043" y="265" width="204" height="49" as="geometry" />
        </mxCell>
        <mxCell id="QxRoNxPgnoKcdu5dZagj-631" value="未来研究方向" style="whiteSpace=wrap;strokeWidth=2;" vertex="1" parent="1">
          <mxGeometry x="12297" y="265" width="156" height="49" as="geometry" />
        </mxCell>
        <mxCell id="QxRoNxPgnoKcdu5dZagj-632" value="" style="curved=1;startArrow=none;endArrow=block;exitX=0;exitY=0.51;entryX=0.5;entryY=-0.01;rounded=0;" edge="1" parent="1" source="QxRoNxPgnoKcdu5dZagj-540" target="QxRoNxPgnoKcdu5dZagj-541">
          <mxGeometry relative="1" as="geometry">
            <Array as="points">
              <mxPoint x="878" y="94" />
            </Array>
          </mxGeometry>
        </mxCell>
        <mxCell id="QxRoNxPgnoKcdu5dZagj-633" value="" style="curved=1;startArrow=none;endArrow=block;exitX=0;exitY=0.65;entryX=0.5;entryY=0;rounded=0;" edge="1" parent="1" source="QxRoNxPgnoKcdu5dZagj-541" target="QxRoNxPgnoKcdu5dZagj-542">
          <mxGeometry relative="1" as="geometry">
            <Array as="points">
              <mxPoint x="351" y="192" />
            </Array>
          </mxGeometry>
        </mxCell>
        <mxCell id="QxRoNxPgnoKcdu5dZagj-634" value="" style="curved=1;startArrow=none;endArrow=block;exitX=0;exitY=0.71;entryX=0.5;entryY=0;rounded=0;" edge="1" parent="1" source="QxRoNxPgnoKcdu5dZagj-542" target="QxRoNxPgnoKcdu5dZagj-543">
          <mxGeometry relative="1" as="geometry">
            <Array as="points">
              <mxPoint x="122" y="387" />
            </Array>
          </mxGeometry>
        </mxCell>
        <mxCell id="QxRoNxPgnoKcdu5dZagj-635" value="" style="curved=1;startArrow=none;endArrow=block;exitX=0.59;exitY=1;entryX=0.5;entryY=0;rounded=0;" edge="1" parent="1" source="QxRoNxPgnoKcdu5dZagj-542" target="QxRoNxPgnoKcdu5dZagj-544">
          <mxGeometry relative="1" as="geometry">
            <Array as="points">
              <mxPoint x="368" y="387" />
            </Array>
          </mxGeometry>
        </mxCell>
        <mxCell id="QxRoNxPgnoKcdu5dZagj-636" value="" style="curved=1;startArrow=none;endArrow=block;exitX=1;exitY=0.7;entryX=0.5;entryY=0;rounded=0;" edge="1" parent="1" source="QxRoNxPgnoKcdu5dZagj-542" target="QxRoNxPgnoKcdu5dZagj-545">
          <mxGeometry relative="1" as="geometry">
            <Array as="points">
              <mxPoint x="595" y="387" />
            </Array>
          </mxGeometry>
        </mxCell>
        <mxCell id="QxRoNxPgnoKcdu5dZagj-637" value="" style="curved=1;startArrow=none;endArrow=block;exitX=1;exitY=0.74;entryX=0.5;entryY=0;rounded=0;" edge="1" parent="1" source="QxRoNxPgnoKcdu5dZagj-541" target="QxRoNxPgnoKcdu5dZagj-546">
          <mxGeometry relative="1" as="geometry">
            <Array as="points">
              <mxPoint x="1220" y="192" />
            </Array>
          </mxGeometry>
        </mxCell>
        <mxCell id="QxRoNxPgnoKcdu5dZagj-638" value="" style="curved=1;startArrow=none;endArrow=block;exitX=0;exitY=0.82;entryX=0.5;entryY=0;rounded=0;" edge="1" parent="1" source="QxRoNxPgnoKcdu5dZagj-546" target="QxRoNxPgnoKcdu5dZagj-547">
          <mxGeometry relative="1" as="geometry">
            <Array as="points">
              <mxPoint x="836" y="387" />
            </Array>
          </mxGeometry>
        </mxCell>
        <mxCell id="QxRoNxPgnoKcdu5dZagj-639" value="" style="curved=1;startArrow=none;endArrow=block;exitX=0.3;exitY=0.99;entryX=0.5;entryY=0;rounded=0;" edge="1" parent="1" source="QxRoNxPgnoKcdu5dZagj-546" target="QxRoNxPgnoKcdu5dZagj-548">
          <mxGeometry relative="1" as="geometry">
            <Array as="points">
              <mxPoint x="1117" y="387" />
            </Array>
          </mxGeometry>
        </mxCell>
        <mxCell id="QxRoNxPgnoKcdu5dZagj-640" value="" style="curved=1;startArrow=none;endArrow=block;exitX=0.83;exitY=0.99;entryX=0.5;entryY=0;rounded=0;" edge="1" parent="1" source="QxRoNxPgnoKcdu5dZagj-546" target="QxRoNxPgnoKcdu5dZagj-549">
          <mxGeometry relative="1" as="geometry">
            <Array as="points">
              <mxPoint x="1387" y="387" />
            </Array>
          </mxGeometry>
        </mxCell>
        <mxCell id="QxRoNxPgnoKcdu5dZagj-641" value="" style="curved=1;startArrow=none;endArrow=block;exitX=1;exitY=0.81;entryX=0.5;entryY=0;rounded=0;" edge="1" parent="1" source="QxRoNxPgnoKcdu5dZagj-546" target="QxRoNxPgnoKcdu5dZagj-550">
          <mxGeometry relative="1" as="geometry">
            <Array as="points">
              <mxPoint x="1620" y="387" />
            </Array>
          </mxGeometry>
        </mxCell>
        <mxCell id="QxRoNxPgnoKcdu5dZagj-642" value="" style="curved=1;startArrow=none;endArrow=block;exitX=0;exitY=0.51;entryX=0.5;entryY=-0.01;rounded=0;" edge="1" parent="1" source="QxRoNxPgnoKcdu5dZagj-540" target="QxRoNxPgnoKcdu5dZagj-551">
          <mxGeometry relative="1" as="geometry">
            <Array as="points">
              <mxPoint x="2563" y="94" />
            </Array>
          </mxGeometry>
        </mxCell>
        <mxCell id="QxRoNxPgnoKcdu5dZagj-643" value="" style="curved=1;startArrow=none;endArrow=block;exitX=0;exitY=0.54;entryX=0.5;entryY=0;rounded=0;" edge="1" parent="1" source="QxRoNxPgnoKcdu5dZagj-551" target="QxRoNxPgnoKcdu5dZagj-552">
          <mxGeometry relative="1" as="geometry">
            <Array as="points">
              <mxPoint x="1751" y="192" />
            </Array>
          </mxGeometry>
        </mxCell>
        <mxCell id="QxRoNxPgnoKcdu5dZagj-644" value="" style="curved=1;startArrow=none;endArrow=block;exitX=0;exitY=0.6;entryX=0.5;entryY=0;rounded=0;" edge="1" parent="1" source="QxRoNxPgnoKcdu5dZagj-551" target="QxRoNxPgnoKcdu5dZagj-553">
          <mxGeometry relative="1" as="geometry">
            <Array as="points">
              <mxPoint x="2143" y="192" />
            </Array>
          </mxGeometry>
        </mxCell>
        <mxCell id="QxRoNxPgnoKcdu5dZagj-645" value="" style="curved=1;startArrow=none;endArrow=block;exitX=0;exitY=0.85;entryX=0.5;entryY=0;rounded=0;" edge="1" parent="1" source="QxRoNxPgnoKcdu5dZagj-553" target="QxRoNxPgnoKcdu5dZagj-554">
          <mxGeometry relative="1" as="geometry">
            <Array as="points">
              <mxPoint x="1882" y="387" />
            </Array>
          </mxGeometry>
        </mxCell>
        <mxCell id="QxRoNxPgnoKcdu5dZagj-646" value="" style="curved=1;startArrow=none;endArrow=block;exitX=0.61;exitY=0.99;entryX=0.5;entryY=0;rounded=0;" edge="1" parent="1" source="QxRoNxPgnoKcdu5dZagj-553" target="QxRoNxPgnoKcdu5dZagj-555">
          <mxGeometry relative="1" as="geometry">
            <Array as="points">
              <mxPoint x="2183" y="387" />
            </Array>
          </mxGeometry>
        </mxCell>
        <mxCell id="QxRoNxPgnoKcdu5dZagj-647" value="" style="curved=1;startArrow=none;endArrow=block;exitX=1;exitY=0.83;entryX=0.5;entryY=0;rounded=0;" edge="1" parent="1" source="QxRoNxPgnoKcdu5dZagj-553" target="QxRoNxPgnoKcdu5dZagj-556">
          <mxGeometry relative="1" as="geometry">
            <Array as="points">
              <mxPoint x="2420" y="387" />
            </Array>
          </mxGeometry>
        </mxCell>
        <mxCell id="QxRoNxPgnoKcdu5dZagj-648" value="" style="curved=1;startArrow=none;endArrow=block;exitX=1;exitY=0.71;entryX=0.5;entryY=0;rounded=0;" edge="1" parent="1" source="QxRoNxPgnoKcdu5dZagj-551" target="QxRoNxPgnoKcdu5dZagj-557">
          <mxGeometry relative="1" as="geometry">
            <Array as="points">
              <mxPoint x="2769" y="192" />
            </Array>
          </mxGeometry>
        </mxCell>
        <mxCell id="QxRoNxPgnoKcdu5dZagj-649" value="" style="curved=1;startArrow=none;endArrow=block;exitX=0.04;exitY=0.99;entryX=0.5;entryY=0;rounded=0;" edge="1" parent="1" source="QxRoNxPgnoKcdu5dZagj-557" target="QxRoNxPgnoKcdu5dZagj-558">
          <mxGeometry relative="1" as="geometry">
            <Array as="points">
              <mxPoint x="2595" y="387" />
            </Array>
          </mxGeometry>
        </mxCell>
        <mxCell id="QxRoNxPgnoKcdu5dZagj-650" value="" style="curved=1;startArrow=none;endArrow=block;exitX=0.25;exitY=0.99;entryX=0.5;entryY=0;rounded=0;" edge="1" parent="1" source="QxRoNxPgnoKcdu5dZagj-558" target="QxRoNxPgnoKcdu5dZagj-559">
          <mxGeometry relative="1" as="geometry">
            <Array as="points">
              <mxPoint x="2508" y="520" />
            </Array>
          </mxGeometry>
        </mxCell>
        <mxCell id="QxRoNxPgnoKcdu5dZagj-651" value="" style="curved=1;startArrow=none;endArrow=block;exitX=0.75;exitY=0.99;entryX=0.5;entryY=0;rounded=0;" edge="1" parent="1" source="QxRoNxPgnoKcdu5dZagj-558" target="QxRoNxPgnoKcdu5dZagj-560">
          <mxGeometry relative="1" as="geometry">
            <Array as="points">
              <mxPoint x="2682" y="520" />
            </Array>
          </mxGeometry>
        </mxCell>
        <mxCell id="QxRoNxPgnoKcdu5dZagj-652" value="" style="curved=1;startArrow=none;endArrow=block;exitX=0.96;exitY=0.99;entryX=0.5;entryY=0;rounded=0;" edge="1" parent="1" source="QxRoNxPgnoKcdu5dZagj-557" target="QxRoNxPgnoKcdu5dZagj-561">
          <mxGeometry relative="1" as="geometry">
            <Array as="points">
              <mxPoint x="2943" y="387" />
            </Array>
          </mxGeometry>
        </mxCell>
        <mxCell id="QxRoNxPgnoKcdu5dZagj-653" value="" style="curved=1;startArrow=none;endArrow=block;exitX=0.25;exitY=0.99;entryX=0.5;entryY=0;rounded=0;" edge="1" parent="1" source="QxRoNxPgnoKcdu5dZagj-561" target="QxRoNxPgnoKcdu5dZagj-562">
          <mxGeometry relative="1" as="geometry">
            <Array as="points">
              <mxPoint x="2856" y="520" />
            </Array>
          </mxGeometry>
        </mxCell>
        <mxCell id="QxRoNxPgnoKcdu5dZagj-654" value="" style="curved=1;startArrow=none;endArrow=block;exitX=0.76;exitY=0.99;entryX=0.5;entryY=0;rounded=0;" edge="1" parent="1" source="QxRoNxPgnoKcdu5dZagj-561" target="QxRoNxPgnoKcdu5dZagj-563">
          <mxGeometry relative="1" as="geometry">
            <Array as="points">
              <mxPoint x="3034" y="520" />
            </Array>
          </mxGeometry>
        </mxCell>
        <mxCell id="QxRoNxPgnoKcdu5dZagj-655" value="" style="curved=1;startArrow=none;endArrow=block;exitX=1;exitY=0.56;entryX=0.5;entryY=0;rounded=0;" edge="1" parent="1" source="QxRoNxPgnoKcdu5dZagj-551" target="QxRoNxPgnoKcdu5dZagj-564">
          <mxGeometry relative="1" as="geometry">
            <Array as="points">
              <mxPoint x="3233" y="192" />
            </Array>
          </mxGeometry>
        </mxCell>
        <mxCell id="QxRoNxPgnoKcdu5dZagj-656" value="" style="curved=1;startArrow=none;endArrow=block;exitX=0.27;exitY=0.99;entryX=0.5;entryY=0;rounded=0;" edge="1" parent="1" source="QxRoNxPgnoKcdu5dZagj-564" target="QxRoNxPgnoKcdu5dZagj-565">
          <mxGeometry relative="1" as="geometry">
            <Array as="points">
              <mxPoint x="3134" y="387" />
            </Array>
          </mxGeometry>
        </mxCell>
        <mxCell id="QxRoNxPgnoKcdu5dZagj-657" value="" style="curved=1;startArrow=none;endArrow=block;exitX=0.72;exitY=0.99;entryX=0.5;entryY=0;rounded=0;" edge="1" parent="1" source="QxRoNxPgnoKcdu5dZagj-564" target="QxRoNxPgnoKcdu5dZagj-566">
          <mxGeometry relative="1" as="geometry">
            <Array as="points">
              <mxPoint x="3332" y="387" />
            </Array>
          </mxGeometry>
        </mxCell>
        <mxCell id="QxRoNxPgnoKcdu5dZagj-658" value="" style="curved=1;startArrow=none;endArrow=block;exitX=0.5;exitY=0.99;entryX=0.5;entryY=-0.01;rounded=0;" edge="1" parent="1" source="QxRoNxPgnoKcdu5dZagj-540" target="QxRoNxPgnoKcdu5dZagj-567">
          <mxGeometry relative="1" as="geometry">
            <Array as="points" />
          </mxGeometry>
        </mxCell>
        <mxCell id="QxRoNxPgnoKcdu5dZagj-659" value="" style="curved=1;startArrow=none;endArrow=block;exitX=0;exitY=0.5;entryX=0.5;entryY=0;rounded=0;" edge="1" parent="1" source="QxRoNxPgnoKcdu5dZagj-567" target="QxRoNxPgnoKcdu5dZagj-568">
          <mxGeometry relative="1" as="geometry">
            <Array as="points">
              <mxPoint x="3879" y="192" />
            </Array>
          </mxGeometry>
        </mxCell>
        <mxCell id="QxRoNxPgnoKcdu5dZagj-660" value="" style="curved=1;startArrow=none;endArrow=block;exitX=0.07;exitY=0.99;entryX=0.5;entryY=0;rounded=0;" edge="1" parent="1" source="QxRoNxPgnoKcdu5dZagj-568" target="QxRoNxPgnoKcdu5dZagj-569">
          <mxGeometry relative="1" as="geometry">
            <Array as="points">
              <mxPoint x="3554" y="387" />
            </Array>
          </mxGeometry>
        </mxCell>
        <mxCell id="QxRoNxPgnoKcdu5dZagj-661" value="" style="curved=1;startArrow=none;endArrow=block;exitX=0;exitY=0.95;entryX=0.5;entryY=0;rounded=0;" edge="1" parent="1" source="QxRoNxPgnoKcdu5dZagj-569" target="QxRoNxPgnoKcdu5dZagj-570">
          <mxGeometry relative="1" as="geometry">
            <Array as="points">
              <mxPoint x="3248" y="520" />
            </Array>
          </mxGeometry>
        </mxCell>
        <mxCell id="QxRoNxPgnoKcdu5dZagj-662" value="" style="curved=1;startArrow=none;endArrow=block;exitX=0.5;exitY=0.99;entryX=0.5;entryY=0;rounded=0;" edge="1" parent="1" source="QxRoNxPgnoKcdu5dZagj-569" target="QxRoNxPgnoKcdu5dZagj-571">
          <mxGeometry relative="1" as="geometry">
            <Array as="points" />
          </mxGeometry>
        </mxCell>
        <mxCell id="QxRoNxPgnoKcdu5dZagj-663" value="" style="curved=1;startArrow=none;endArrow=block;exitX=0.81;exitY=0.99;entryX=0.5;entryY=0;rounded=0;" edge="1" parent="1" source="QxRoNxPgnoKcdu5dZagj-569" target="QxRoNxPgnoKcdu5dZagj-572">
          <mxGeometry relative="1" as="geometry">
            <Array as="points">
              <mxPoint x="3728" y="520" />
            </Array>
          </mxGeometry>
        </mxCell>
        <mxCell id="QxRoNxPgnoKcdu5dZagj-664" value="" style="curved=1;startArrow=none;endArrow=block;exitX=0.96;exitY=0.99;entryX=0.5;entryY=0;rounded=0;" edge="1" parent="1" source="QxRoNxPgnoKcdu5dZagj-568" target="QxRoNxPgnoKcdu5dZagj-573">
          <mxGeometry relative="1" as="geometry">
            <Array as="points">
              <mxPoint x="4228" y="387" />
            </Array>
          </mxGeometry>
        </mxCell>
        <mxCell id="QxRoNxPgnoKcdu5dZagj-665" value="" style="curved=1;startArrow=none;endArrow=block;exitX=0;exitY=0.95;entryX=0.5;entryY=0;rounded=0;" edge="1" parent="1" source="QxRoNxPgnoKcdu5dZagj-573" target="QxRoNxPgnoKcdu5dZagj-574">
          <mxGeometry relative="1" as="geometry">
            <Array as="points">
              <mxPoint x="3942" y="520" />
            </Array>
          </mxGeometry>
        </mxCell>
        <mxCell id="QxRoNxPgnoKcdu5dZagj-666" value="" style="curved=1;startArrow=none;endArrow=block;exitX=0.45;exitY=1.01;entryX=0.5;entryY=0;rounded=0;" edge="1" parent="1" source="QxRoNxPgnoKcdu5dZagj-573" target="QxRoNxPgnoKcdu5dZagj-575">
          <mxGeometry relative="1" as="geometry">
            <Array as="points">
              <mxPoint x="4204" y="520" />
            </Array>
          </mxGeometry>
        </mxCell>
        <mxCell id="QxRoNxPgnoKcdu5dZagj-667" value="" style="curved=1;startArrow=none;endArrow=block;exitX=1;exitY=0.99;entryX=0.5;entryY=0;rounded=0;" edge="1" parent="1" source="QxRoNxPgnoKcdu5dZagj-573" target="QxRoNxPgnoKcdu5dZagj-576">
          <mxGeometry relative="1" as="geometry">
            <Array as="points">
              <mxPoint x="4490" y="520" />
            </Array>
          </mxGeometry>
        </mxCell>
        <mxCell id="QxRoNxPgnoKcdu5dZagj-668" value="" style="curved=1;startArrow=none;endArrow=block;exitX=0;exitY=0.53;entryX=0.5;entryY=0;rounded=0;" edge="1" parent="1" source="QxRoNxPgnoKcdu5dZagj-567" target="QxRoNxPgnoKcdu5dZagj-577">
          <mxGeometry relative="1" as="geometry">
            <Array as="points">
              <mxPoint x="5327" y="192" />
            </Array>
          </mxGeometry>
        </mxCell>
        <mxCell id="QxRoNxPgnoKcdu5dZagj-669" value="" style="curved=1;startArrow=none;endArrow=block;exitX=0.07;exitY=0.99;entryX=0.5;entryY=0;rounded=0;" edge="1" parent="1" source="QxRoNxPgnoKcdu5dZagj-577" target="QxRoNxPgnoKcdu5dZagj-578">
          <mxGeometry relative="1" as="geometry">
            <Array as="points">
              <mxPoint x="4974" y="387" />
            </Array>
          </mxGeometry>
        </mxCell>
        <mxCell id="QxRoNxPgnoKcdu5dZagj-670" value="" style="curved=1;startArrow=none;endArrow=block;exitX=0.1;exitY=0.99;entryX=0.5;entryY=0;rounded=0;" edge="1" parent="1" source="QxRoNxPgnoKcdu5dZagj-578" target="QxRoNxPgnoKcdu5dZagj-579">
          <mxGeometry relative="1" as="geometry">
            <Array as="points">
              <mxPoint x="4752" y="520" />
            </Array>
          </mxGeometry>
        </mxCell>
        <mxCell id="QxRoNxPgnoKcdu5dZagj-671" value="" style="curved=1;startArrow=none;endArrow=block;exitX=0.48;exitY=0.99;entryX=0.5;entryY=0;rounded=0;" edge="1" parent="1" source="QxRoNxPgnoKcdu5dZagj-578" target="QxRoNxPgnoKcdu5dZagj-580">
          <mxGeometry relative="1" as="geometry">
            <Array as="points">
              <mxPoint x="4966" y="520" />
            </Array>
          </mxGeometry>
        </mxCell>
        <mxCell id="QxRoNxPgnoKcdu5dZagj-672" value="" style="curved=1;startArrow=none;endArrow=block;exitX=0.85;exitY=0.99;entryX=0.5;entryY=0;rounded=0;" edge="1" parent="1" source="QxRoNxPgnoKcdu5dZagj-578" target="QxRoNxPgnoKcdu5dZagj-581">
          <mxGeometry relative="1" as="geometry">
            <Array as="points">
              <mxPoint x="5172" y="520" />
            </Array>
          </mxGeometry>
        </mxCell>
        <mxCell id="QxRoNxPgnoKcdu5dZagj-673" value="" style="curved=1;startArrow=none;endArrow=block;exitX=0.93;exitY=0.99;entryX=0.5;entryY=0;rounded=0;" edge="1" parent="1" source="QxRoNxPgnoKcdu5dZagj-577" target="QxRoNxPgnoKcdu5dZagj-582">
          <mxGeometry relative="1" as="geometry">
            <Array as="points">
              <mxPoint x="5680" y="387" />
            </Array>
          </mxGeometry>
        </mxCell>
        <mxCell id="QxRoNxPgnoKcdu5dZagj-674" value="" style="curved=1;startArrow=none;endArrow=block;exitX=0.05;exitY=0.99;entryX=0.5;entryY=0;rounded=0;" edge="1" parent="1" source="QxRoNxPgnoKcdu5dZagj-582" target="QxRoNxPgnoKcdu5dZagj-583">
          <mxGeometry relative="1" as="geometry">
            <Array as="points">
              <mxPoint x="5426" y="520" />
            </Array>
          </mxGeometry>
        </mxCell>
        <mxCell id="QxRoNxPgnoKcdu5dZagj-675" value="" style="curved=1;startArrow=none;endArrow=block;exitX=0.51;exitY=0.99;entryX=0.5;entryY=0;rounded=0;" edge="1" parent="1" source="QxRoNxPgnoKcdu5dZagj-582" target="QxRoNxPgnoKcdu5dZagj-584">
          <mxGeometry relative="1" as="geometry">
            <Array as="points">
              <mxPoint x="5688" y="520" />
            </Array>
          </mxGeometry>
        </mxCell>
        <mxCell id="QxRoNxPgnoKcdu5dZagj-676" value="" style="curved=1;startArrow=none;endArrow=block;exitX=0.91;exitY=0.99;entryX=0.5;entryY=0;rounded=0;" edge="1" parent="1" source="QxRoNxPgnoKcdu5dZagj-582" target="QxRoNxPgnoKcdu5dZagj-585">
          <mxGeometry relative="1" as="geometry">
            <Array as="points">
              <mxPoint x="5911" y="520" />
            </Array>
          </mxGeometry>
        </mxCell>
        <mxCell id="QxRoNxPgnoKcdu5dZagj-677" value="" style="curved=1;startArrow=none;endArrow=block;exitX=0.9;exitY=0.98;entryX=0.5;entryY=0;rounded=0;" edge="1" parent="1" source="QxRoNxPgnoKcdu5dZagj-567" target="QxRoNxPgnoKcdu5dZagj-586">
          <mxGeometry relative="1" as="geometry">
            <Array as="points">
              <mxPoint x="6554" y="192" />
            </Array>
          </mxGeometry>
        </mxCell>
        <mxCell id="QxRoNxPgnoKcdu5dZagj-678" value="" style="curved=1;startArrow=none;endArrow=block;exitX=0.08;exitY=1;entryX=0.5;entryY=0;rounded=0;" edge="1" parent="1" source="QxRoNxPgnoKcdu5dZagj-586" target="QxRoNxPgnoKcdu5dZagj-587">
          <mxGeometry relative="1" as="geometry">
            <Array as="points">
              <mxPoint x="6244" y="387" />
            </Array>
          </mxGeometry>
        </mxCell>
        <mxCell id="QxRoNxPgnoKcdu5dZagj-679" value="" style="curved=1;startArrow=none;endArrow=block;exitX=0.29;exitY=0.99;entryX=0.5;entryY=0;rounded=0;" edge="1" parent="1" source="QxRoNxPgnoKcdu5dZagj-587" target="QxRoNxPgnoKcdu5dZagj-588">
          <mxGeometry relative="1" as="geometry">
            <Array as="points">
              <mxPoint x="6133" y="520" />
            </Array>
          </mxGeometry>
        </mxCell>
        <mxCell id="QxRoNxPgnoKcdu5dZagj-680" value="" style="curved=1;startArrow=none;endArrow=block;exitX=0.72;exitY=0.99;entryX=0.5;entryY=0;rounded=0;" edge="1" parent="1" source="QxRoNxPgnoKcdu5dZagj-587" target="QxRoNxPgnoKcdu5dZagj-589">
          <mxGeometry relative="1" as="geometry">
            <Array as="points">
              <mxPoint x="6355" y="520" />
            </Array>
          </mxGeometry>
        </mxCell>
        <mxCell id="QxRoNxPgnoKcdu5dZagj-681" value="" style="curved=1;startArrow=none;endArrow=block;exitX=0.86;exitY=1;entryX=0.5;entryY=0;rounded=0;" edge="1" parent="1" source="QxRoNxPgnoKcdu5dZagj-586" target="QxRoNxPgnoKcdu5dZagj-590">
          <mxGeometry relative="1" as="geometry">
            <Array as="points">
              <mxPoint x="6823" y="387" />
            </Array>
          </mxGeometry>
        </mxCell>
        <mxCell id="QxRoNxPgnoKcdu5dZagj-682" value="" style="curved=1;startArrow=none;endArrow=block;exitX=0.08;exitY=0.99;entryX=0.5;entryY=0;rounded=0;" edge="1" parent="1" source="QxRoNxPgnoKcdu5dZagj-590" target="QxRoNxPgnoKcdu5dZagj-591">
          <mxGeometry relative="1" as="geometry">
            <Array as="points">
              <mxPoint x="6585" y="520" />
            </Array>
          </mxGeometry>
        </mxCell>
        <mxCell id="QxRoNxPgnoKcdu5dZagj-683" value="" style="curved=1;startArrow=none;endArrow=block;exitX=0.5;exitY=0.99;entryX=0.5;entryY=0;rounded=0;" edge="1" parent="1" source="QxRoNxPgnoKcdu5dZagj-590" target="QxRoNxPgnoKcdu5dZagj-592">
          <mxGeometry relative="1" as="geometry">
            <Array as="points" />
          </mxGeometry>
        </mxCell>
        <mxCell id="QxRoNxPgnoKcdu5dZagj-684" value="" style="curved=1;startArrow=none;endArrow=block;exitX=0.88;exitY=0.99;entryX=0.5;entryY=0;rounded=0;" edge="1" parent="1" source="QxRoNxPgnoKcdu5dZagj-590" target="QxRoNxPgnoKcdu5dZagj-593">
          <mxGeometry relative="1" as="geometry">
            <Array as="points">
              <mxPoint x="7038" y="520" />
            </Array>
          </mxGeometry>
        </mxCell>
        <mxCell id="QxRoNxPgnoKcdu5dZagj-685" value="" style="curved=1;startArrow=none;endArrow=block;exitX=1;exitY=0.52;entryX=0.5;entryY=0;rounded=0;" edge="1" parent="1" source="QxRoNxPgnoKcdu5dZagj-567" target="QxRoNxPgnoKcdu5dZagj-594">
          <mxGeometry relative="1" as="geometry">
            <Array as="points">
              <mxPoint x="7795" y="192" />
            </Array>
          </mxGeometry>
        </mxCell>
        <mxCell id="QxRoNxPgnoKcdu5dZagj-686" value="" style="curved=1;startArrow=none;endArrow=block;exitX=0.11;exitY=0.99;entryX=0.5;entryY=0;rounded=0;" edge="1" parent="1" source="QxRoNxPgnoKcdu5dZagj-594" target="QxRoNxPgnoKcdu5dZagj-595">
          <mxGeometry relative="1" as="geometry">
            <Array as="points">
              <mxPoint x="7470" y="387" />
            </Array>
          </mxGeometry>
        </mxCell>
        <mxCell id="QxRoNxPgnoKcdu5dZagj-687" value="" style="curved=1;startArrow=none;endArrow=block;exitX=0.06;exitY=0.99;entryX=0.5;entryY=0;rounded=0;" edge="1" parent="1" source="QxRoNxPgnoKcdu5dZagj-595" target="QxRoNxPgnoKcdu5dZagj-596">
          <mxGeometry relative="1" as="geometry">
            <Array as="points">
              <mxPoint x="7244" y="520" />
            </Array>
          </mxGeometry>
        </mxCell>
        <mxCell id="QxRoNxPgnoKcdu5dZagj-688" value="" style="curved=1;startArrow=none;endArrow=block;exitX=0.49;exitY=0.99;entryX=0.5;entryY=0;rounded=0;" edge="1" parent="1" source="QxRoNxPgnoKcdu5dZagj-595" target="QxRoNxPgnoKcdu5dZagj-597">
          <mxGeometry relative="1" as="geometry">
            <Array as="points">
              <mxPoint x="7466" y="520" />
            </Array>
          </mxGeometry>
        </mxCell>
        <mxCell id="QxRoNxPgnoKcdu5dZagj-689" value="" style="curved=1;startArrow=none;endArrow=block;exitX=0.89;exitY=0.99;entryX=0.5;entryY=0;rounded=0;" edge="1" parent="1" source="QxRoNxPgnoKcdu5dZagj-595" target="QxRoNxPgnoKcdu5dZagj-598">
          <mxGeometry relative="1" as="geometry">
            <Array as="points">
              <mxPoint x="7672" y="520" />
            </Array>
          </mxGeometry>
        </mxCell>
        <mxCell id="QxRoNxPgnoKcdu5dZagj-690" value="" style="curved=1;startArrow=none;endArrow=block;exitX=0.94;exitY=0.99;entryX=0.5;entryY=0;rounded=0;" edge="1" parent="1" source="QxRoNxPgnoKcdu5dZagj-594" target="QxRoNxPgnoKcdu5dZagj-599">
          <mxGeometry relative="1" as="geometry">
            <Array as="points">
              <mxPoint x="8152" y="387" />
            </Array>
          </mxGeometry>
        </mxCell>
        <mxCell id="QxRoNxPgnoKcdu5dZagj-691" value="" style="curved=1;startArrow=none;endArrow=block;exitX=0.1;exitY=0.99;entryX=0.5;entryY=0;rounded=0;" edge="1" parent="1" source="QxRoNxPgnoKcdu5dZagj-599" target="QxRoNxPgnoKcdu5dZagj-600">
          <mxGeometry relative="1" as="geometry">
            <Array as="points">
              <mxPoint x="7878" y="520" />
            </Array>
          </mxGeometry>
        </mxCell>
        <mxCell id="QxRoNxPgnoKcdu5dZagj-692" value="" style="curved=1;startArrow=none;endArrow=block;exitX=0.46;exitY=0.99;entryX=0.5;entryY=0;rounded=0;" edge="1" parent="1" source="QxRoNxPgnoKcdu5dZagj-599" target="QxRoNxPgnoKcdu5dZagj-601">
          <mxGeometry relative="1" as="geometry">
            <Array as="points">
              <mxPoint x="8124" y="520" />
            </Array>
          </mxGeometry>
        </mxCell>
        <mxCell id="QxRoNxPgnoKcdu5dZagj-693" value="" style="curved=1;startArrow=none;endArrow=block;exitX=0.86;exitY=0.99;entryX=0.5;entryY=0;rounded=0;" edge="1" parent="1" source="QxRoNxPgnoKcdu5dZagj-599" target="QxRoNxPgnoKcdu5dZagj-602">
          <mxGeometry relative="1" as="geometry">
            <Array as="points">
              <mxPoint x="8402" y="520" />
            </Array>
          </mxGeometry>
        </mxCell>
        <mxCell id="QxRoNxPgnoKcdu5dZagj-694" value="" style="curved=1;startArrow=none;endArrow=block;exitX=1;exitY=0.5;entryX=0.5;entryY=0;rounded=0;" edge="1" parent="1" source="QxRoNxPgnoKcdu5dZagj-567" target="QxRoNxPgnoKcdu5dZagj-603">
          <mxGeometry relative="1" as="geometry">
            <Array as="points">
              <mxPoint x="9056" y="192" />
            </Array>
          </mxGeometry>
        </mxCell>
        <mxCell id="QxRoNxPgnoKcdu5dZagj-695" value="" style="curved=1;startArrow=none;endArrow=block;exitX=0.03;exitY=0.99;entryX=0.5;entryY=0;rounded=0;" edge="1" parent="1" source="QxRoNxPgnoKcdu5dZagj-603" target="QxRoNxPgnoKcdu5dZagj-604">
          <mxGeometry relative="1" as="geometry">
            <Array as="points">
              <mxPoint x="8791" y="387" />
            </Array>
          </mxGeometry>
        </mxCell>
        <mxCell id="QxRoNxPgnoKcdu5dZagj-696" value="" style="curved=1;startArrow=none;endArrow=block;exitX=0.27;exitY=0.99;entryX=0.5;entryY=0;rounded=0;" edge="1" parent="1" source="QxRoNxPgnoKcdu5dZagj-604" target="QxRoNxPgnoKcdu5dZagj-605">
          <mxGeometry relative="1" as="geometry">
            <Array as="points">
              <mxPoint x="8664" y="520" />
            </Array>
          </mxGeometry>
        </mxCell>
        <mxCell id="QxRoNxPgnoKcdu5dZagj-697" value="" style="curved=1;startArrow=none;endArrow=block;exitX=0.73;exitY=0.99;entryX=0.5;entryY=0;rounded=0;" edge="1" parent="1" source="QxRoNxPgnoKcdu5dZagj-604" target="QxRoNxPgnoKcdu5dZagj-606">
          <mxGeometry relative="1" as="geometry">
            <Array as="points">
              <mxPoint x="8918" y="520" />
            </Array>
          </mxGeometry>
        </mxCell>
        <mxCell id="QxRoNxPgnoKcdu5dZagj-698" value="" style="curved=1;startArrow=none;endArrow=block;exitX=1;exitY=0.99;entryX=0.5;entryY=0;rounded=0;" edge="1" parent="1" source="QxRoNxPgnoKcdu5dZagj-603" target="QxRoNxPgnoKcdu5dZagj-607">
          <mxGeometry relative="1" as="geometry">
            <Array as="points">
              <mxPoint x="9338" y="387" />
            </Array>
          </mxGeometry>
        </mxCell>
        <mxCell id="QxRoNxPgnoKcdu5dZagj-699" value="" style="curved=1;startArrow=none;endArrow=block;exitX=0.1;exitY=0.99;entryX=0.5;entryY=0;rounded=0;" edge="1" parent="1" source="QxRoNxPgnoKcdu5dZagj-607" target="QxRoNxPgnoKcdu5dZagj-608">
          <mxGeometry relative="1" as="geometry">
            <Array as="points">
              <mxPoint x="9148" y="520" />
            </Array>
          </mxGeometry>
        </mxCell>
        <mxCell id="QxRoNxPgnoKcdu5dZagj-700" value="" style="curved=1;startArrow=none;endArrow=block;exitX=0.5;exitY=0.99;entryX=0.5;entryY=0;rounded=0;" edge="1" parent="1" source="QxRoNxPgnoKcdu5dZagj-607" target="QxRoNxPgnoKcdu5dZagj-609">
          <mxGeometry relative="1" as="geometry">
            <Array as="points" />
          </mxGeometry>
        </mxCell>
        <mxCell id="QxRoNxPgnoKcdu5dZagj-701" value="" style="curved=1;startArrow=none;endArrow=block;exitX=1;exitY=0.64;entryX=0.5;entryY=0;rounded=0;" edge="1" parent="1" source="QxRoNxPgnoKcdu5dZagj-607" target="QxRoNxPgnoKcdu5dZagj-610">
          <mxGeometry relative="1" as="geometry">
            <Array as="points">
              <mxPoint x="10152" y="520" />
            </Array>
          </mxGeometry>
        </mxCell>
        <mxCell id="QxRoNxPgnoKcdu5dZagj-702" value="" style="curved=1;startArrow=none;endArrow=block;exitX=1;exitY=0.51;entryX=0.5;entryY=-0.01;rounded=0;" edge="1" parent="1" source="QxRoNxPgnoKcdu5dZagj-540" target="QxRoNxPgnoKcdu5dZagj-611">
          <mxGeometry relative="1" as="geometry">
            <Array as="points">
              <mxPoint x="10411" y="94" />
            </Array>
          </mxGeometry>
        </mxCell>
        <mxCell id="QxRoNxPgnoKcdu5dZagj-703" value="" style="curved=1;startArrow=none;endArrow=block;exitX=0;exitY=0.55;entryX=0.5;entryY=0;rounded=0;" edge="1" parent="1" source="QxRoNxPgnoKcdu5dZagj-611" target="QxRoNxPgnoKcdu5dZagj-612">
          <mxGeometry relative="1" as="geometry">
            <Array as="points">
              <mxPoint x="9703" y="192" />
            </Array>
          </mxGeometry>
        </mxCell>
        <mxCell id="QxRoNxPgnoKcdu5dZagj-704" value="" style="curved=1;startArrow=none;endArrow=block;exitX=0.3;exitY=0.99;entryX=0.5;entryY=0;rounded=0;" edge="1" parent="1" source="QxRoNxPgnoKcdu5dZagj-612" target="QxRoNxPgnoKcdu5dZagj-613">
          <mxGeometry relative="1" as="geometry">
            <Array as="points">
              <mxPoint x="9576" y="387" />
            </Array>
          </mxGeometry>
        </mxCell>
        <mxCell id="QxRoNxPgnoKcdu5dZagj-705" value="" style="curved=1;startArrow=none;endArrow=block;exitX=0.71;exitY=0.99;entryX=0.5;entryY=0;rounded=0;" edge="1" parent="1" source="QxRoNxPgnoKcdu5dZagj-612" target="QxRoNxPgnoKcdu5dZagj-614">
          <mxGeometry relative="1" as="geometry">
            <Array as="points">
              <mxPoint x="9830" y="387" />
            </Array>
          </mxGeometry>
        </mxCell>
        <mxCell id="QxRoNxPgnoKcdu5dZagj-706" value="" style="curved=1;startArrow=none;endArrow=block;exitX=0.56;exitY=0.98;entryX=0.5;entryY=0;rounded=0;" edge="1" parent="1" source="QxRoNxPgnoKcdu5dZagj-611" target="QxRoNxPgnoKcdu5dZagj-615">
          <mxGeometry relative="1" as="geometry">
            <Array as="points">
              <mxPoint x="10423" y="192" />
            </Array>
          </mxGeometry>
        </mxCell>
        <mxCell id="QxRoNxPgnoKcdu5dZagj-707" value="" style="curved=1;startArrow=none;endArrow=block;exitX=0;exitY=0.99;entryX=0.5;entryY=-0.01;rounded=0;" edge="1" parent="1" source="QxRoNxPgnoKcdu5dZagj-615" target="QxRoNxPgnoKcdu5dZagj-616">
          <mxGeometry relative="1" as="geometry">
            <Array as="points">
              <mxPoint x="10109" y="387" />
            </Array>
          </mxGeometry>
        </mxCell>
        <mxCell id="QxRoNxPgnoKcdu5dZagj-708" value="" style="curved=1;startArrow=none;endArrow=block;exitX=0.48;exitY=0.99;entryX=0.5;entryY=-0.01;rounded=0;" edge="1" parent="1" source="QxRoNxPgnoKcdu5dZagj-615" target="QxRoNxPgnoKcdu5dZagj-617">
          <mxGeometry relative="1" as="geometry">
            <Array as="points">
              <mxPoint x="10411" y="387" />
            </Array>
          </mxGeometry>
        </mxCell>
        <mxCell id="QxRoNxPgnoKcdu5dZagj-709" value="" style="curved=1;startArrow=none;endArrow=block;exitX=0.96;exitY=0.99;entryX=0.5;entryY=-0.01;rounded=0;" edge="1" parent="1" source="QxRoNxPgnoKcdu5dZagj-615" target="QxRoNxPgnoKcdu5dZagj-618">
          <mxGeometry relative="1" as="geometry">
            <Array as="points">
              <mxPoint x="10713" y="387" />
            </Array>
          </mxGeometry>
        </mxCell>
        <mxCell id="QxRoNxPgnoKcdu5dZagj-710" value="" style="curved=1;startArrow=none;endArrow=block;exitX=1;exitY=0.54;entryX=0.5;entryY=0;rounded=0;" edge="1" parent="1" source="QxRoNxPgnoKcdu5dZagj-611" target="QxRoNxPgnoKcdu5dZagj-619">
          <mxGeometry relative="1" as="geometry">
            <Array as="points">
              <mxPoint x="11257" y="192" />
            </Array>
          </mxGeometry>
        </mxCell>
        <mxCell id="QxRoNxPgnoKcdu5dZagj-711" value="" style="curved=1;startArrow=none;endArrow=block;exitX=0.09;exitY=0.99;entryX=0.5;entryY=0;rounded=0;" edge="1" parent="1" source="QxRoNxPgnoKcdu5dZagj-619" target="QxRoNxPgnoKcdu5dZagj-620">
          <mxGeometry relative="1" as="geometry">
            <Array as="points">
              <mxPoint x="10975" y="387" />
            </Array>
          </mxGeometry>
        </mxCell>
        <mxCell id="QxRoNxPgnoKcdu5dZagj-712" value="" style="curved=1;startArrow=none;endArrow=block;exitX=0;exitY=0.68;entryX=0.5;entryY=0;rounded=0;" edge="1" parent="1" source="QxRoNxPgnoKcdu5dZagj-620" target="QxRoNxPgnoKcdu5dZagj-621">
          <mxGeometry relative="1" as="geometry">
            <Array as="points">
              <mxPoint x="10350" y="520" />
            </Array>
          </mxGeometry>
        </mxCell>
        <mxCell id="QxRoNxPgnoKcdu5dZagj-713" value="" style="curved=1;startArrow=none;endArrow=block;exitX=0.76;exitY=0.99;entryX=0.5;entryY=0;rounded=0;" edge="1" parent="1" source="QxRoNxPgnoKcdu5dZagj-620" target="QxRoNxPgnoKcdu5dZagj-622">
          <mxGeometry relative="1" as="geometry">
            <Array as="points">
              <mxPoint x="11098" y="520" />
            </Array>
          </mxGeometry>
        </mxCell>
        <mxCell id="QxRoNxPgnoKcdu5dZagj-714" value="" style="curved=1;startArrow=none;endArrow=block;exitX=0.88;exitY=0.99;entryX=0.5;entryY=0;rounded=0;" edge="1" parent="1" source="QxRoNxPgnoKcdu5dZagj-619" target="QxRoNxPgnoKcdu5dZagj-623">
          <mxGeometry relative="1" as="geometry">
            <Array as="points">
              <mxPoint x="11519" y="387" />
            </Array>
          </mxGeometry>
        </mxCell>
        <mxCell id="QxRoNxPgnoKcdu5dZagj-715" value="" style="curved=1;startArrow=none;endArrow=block;exitX=0.2;exitY=0.99;entryX=0.5;entryY=0;rounded=0;" edge="1" parent="1" source="QxRoNxPgnoKcdu5dZagj-623" target="QxRoNxPgnoKcdu5dZagj-624">
          <mxGeometry relative="1" as="geometry">
            <Array as="points">
              <mxPoint x="11376" y="520" />
            </Array>
          </mxGeometry>
        </mxCell>
        <mxCell id="QxRoNxPgnoKcdu5dZagj-716" value="" style="curved=1;startArrow=none;endArrow=block;exitX=0.8;exitY=0.99;entryX=0.5;entryY=0;rounded=0;" edge="1" parent="1" source="QxRoNxPgnoKcdu5dZagj-623" target="QxRoNxPgnoKcdu5dZagj-625">
          <mxGeometry relative="1" as="geometry">
            <Array as="points">
              <mxPoint x="11662" y="520" />
            </Array>
          </mxGeometry>
        </mxCell>
        <mxCell id="QxRoNxPgnoKcdu5dZagj-717" value="" style="curved=1;startArrow=none;endArrow=block;exitX=1;exitY=0.51;entryX=0.5;entryY=-0.01;rounded=0;" edge="1" parent="1" source="QxRoNxPgnoKcdu5dZagj-540" target="QxRoNxPgnoKcdu5dZagj-626">
          <mxGeometry relative="1" as="geometry">
            <Array as="points">
              <mxPoint x="11883" y="94" />
            </Array>
          </mxGeometry>
        </mxCell>
        <mxCell id="QxRoNxPgnoKcdu5dZagj-718" value="" style="curved=1;startArrow=none;endArrow=block;exitX=0;exitY=0.66;entryX=0.5;entryY=0;rounded=0;" edge="1" parent="1" source="QxRoNxPgnoKcdu5dZagj-626" target="QxRoNxPgnoKcdu5dZagj-627">
          <mxGeometry relative="1" as="geometry">
            <Array as="points">
              <mxPoint x="11471" y="192" />
            </Array>
          </mxGeometry>
        </mxCell>
        <mxCell id="QxRoNxPgnoKcdu5dZagj-719" value="" style="curved=1;startArrow=none;endArrow=block;exitX=0;exitY=0.81;entryX=0.5;entryY=0;rounded=0;" edge="1" parent="1" source="QxRoNxPgnoKcdu5dZagj-626" target="QxRoNxPgnoKcdu5dZagj-628">
          <mxGeometry relative="1" as="geometry">
            <Array as="points">
              <mxPoint x="11661" y="192" />
            </Array>
          </mxGeometry>
        </mxCell>
        <mxCell id="QxRoNxPgnoKcdu5dZagj-720" value="" style="curved=1;startArrow=none;endArrow=block;exitX=0.5;exitY=0.98;entryX=0.5;entryY=0;rounded=0;" edge="1" parent="1" source="QxRoNxPgnoKcdu5dZagj-626" target="QxRoNxPgnoKcdu5dZagj-629">
          <mxGeometry relative="1" as="geometry">
            <Array as="points" />
          </mxGeometry>
        </mxCell>
        <mxCell id="QxRoNxPgnoKcdu5dZagj-721" value="" style="curved=1;startArrow=none;endArrow=block;exitX=1;exitY=0.76;entryX=0.5;entryY=0;rounded=0;" edge="1" parent="1" source="QxRoNxPgnoKcdu5dZagj-626" target="QxRoNxPgnoKcdu5dZagj-630">
          <mxGeometry relative="1" as="geometry">
            <Array as="points">
              <mxPoint x="12145" y="192" />
            </Array>
          </mxGeometry>
        </mxCell>
        <mxCell id="QxRoNxPgnoKcdu5dZagj-722" value="" style="curved=1;startArrow=none;endArrow=block;exitX=1;exitY=0.63;entryX=0.5;entryY=0;rounded=0;" edge="1" parent="1" source="QxRoNxPgnoKcdu5dZagj-626" target="QxRoNxPgnoKcdu5dZagj-631">
          <mxGeometry relative="1" as="geometry">
            <Array as="points">
              <mxPoint x="12375" y="192" />
            </Array>
          </mxGeometry>
        </mxCell>
      </root>
    </mxGraphModel>
  </diagram>
</mxfile>
